# xmcd CD database file
#
# Track frame offsets:
#	150
#	74377
#	103200
#	127117
#	160175
#
# Disc length: 3587 seconds
#
# Revision: 0
# Processed by: cddbd v1.5.1PL2 Copyright (c) Steve Scherf et al.
# Submitted via: CDex 1.51
#
DISCID=450e0105
DTITLE=Wilken, Arden - Intuition
DYEAR=1900
DGENRE=New Age
TTITLE0=Intuition
TTITLE1=Being in the Flow
TTITLE2=Deepening Power
TTITLE3=Violet Flame
TTITLE4=Creation
EXTD=
EXTT0=
EXTT1=
EXTT2=
EXTT3=
EXTT4=
PLAYORDER=
